<svg width="49" height="48" viewBox="0 0 49 48" fill="none" xmlns="http://www.w3.org/2000/svg">
<g clip-path="url(#clip0_2315_312)">
<path d="M24.5 47.5C37.4787 47.5 48 36.9787 48 24C48 11.0213 37.4787 0.5 24.5 0.5C11.5213 0.5 1 11.0213 1 24C1 36.9787 11.5213 47.5 24.5 47.5Z" fill="white" stroke="#53C1DE"/>
<path d="M26.5006 23.974C26.5006 22.4293 25.3813 21.1768 24.0003 21.1768C22.6195 21.1768 21.5 22.4293 21.5 23.974C21.5 25.519 22.6195 26.7713 24.0003 26.7713C25.3813 26.7713 26.5006 25.519 26.5006 23.974Z" fill="#53C1DE"/>
<path fill-rule="evenodd" clip-rule="evenodd" d="M32.1204 18.7809C32.6484 16.3805 33.3121 11.9293 30.9724 10.4202C28.6436 8.91764 25.6132 11.7968 24.013 13.525C22.4174 11.814 19.3019 8.94717 16.9642 10.4611C14.6363 11.9686 15.3542 16.3461 15.8939 18.7615C13.7224 19.4515 10 20.9377 10 23.974C10 27.0018 13.7185 28.6187 15.8772 29.308C15.3355 31.7368 14.6536 36.0517 16.9844 37.556C19.3308 39.0696 22.4367 36.271 24.0517 34.5239C25.6622 36.2623 28.6635 39.0792 30.9927 37.5707C33.3292 36.0576 32.7207 31.666 32.1809 29.2365C34.2735 28.5457 38 26.964 38 23.974C38 20.9668 34.2576 19.4686 32.1204 18.7809ZM31.8551 27.9491C31.5007 26.694 31.0224 25.3594 30.4373 23.9807C30.9958 22.6346 31.4556 21.3172 31.8001 20.0702C33.3668 20.5784 36.8039 21.7399 36.8039 23.974C36.8039 26.2292 33.5056 27.4017 31.8551 27.9491ZM30.3933 36.4126C28.6555 37.538 26.074 34.8442 24.8846 33.564C25.6737 32.5986 26.4621 31.4762 27.2317 30.2299C28.5854 30.0956 29.8641 29.8759 31.0239 29.576C31.4038 31.2944 32.1389 35.2822 30.3933 36.4126ZM17.582 36.3966C15.844 35.2754 16.6384 31.425 17.0369 29.6359C18.1838 29.9197 19.4534 30.1239 20.8102 30.247C21.5848 31.4665 22.3962 32.5875 23.2138 33.5692C22.2036 34.6624 19.3282 37.5229 17.582 36.3966ZM11.1961 23.974C11.1961 21.7105 14.6126 20.5574 16.2151 20.0505C16.5655 21.3255 17.0252 22.6586 17.5798 24.0067C17.018 25.3748 16.5518 26.729 16.1981 28.0191C14.6701 27.5297 11.1961 26.239 11.1961 23.974ZM17.5635 11.6192C19.3086 10.4891 22.0164 13.2414 23.1748 14.4801C22.3614 15.4573 21.5576 16.5699 20.7896 17.7824C19.4728 17.9189 18.2122 18.1382 17.0533 18.432C16.6185 16.4838 15.8202 12.7481 17.5635 11.6192ZM28.0873 19.2369C28.9807 19.363 29.8367 19.5308 30.6404 19.736C30.3991 20.6012 30.0984 21.506 29.7442 22.4334C29.2308 21.3436 28.6796 20.2756 28.0873 19.2369ZM24.0133 15.4364C24.565 16.105 25.1176 16.8517 25.6611 17.6618C24.5586 17.6034 23.4543 17.6032 22.3517 17.6609C22.8958 16.8584 23.4531 16.1128 24.0133 15.4364ZM18.2661 22.4324C17.9177 21.5082 17.6197 20.5995 17.3763 19.7219C18.1752 19.5219 19.0272 19.3585 19.9148 19.2344C19.3208 20.2708 18.7706 21.3384 18.2661 22.4324ZM19.9403 28.8092C19.0234 28.6947 18.1585 28.5396 17.3599 28.3451C17.6071 27.4521 17.9117 26.5238 18.2674 25.5796C18.7789 26.6851 19.3375 27.763 19.9403 28.8092ZM24.0465 32.6062C23.4796 31.9218 22.9141 31.1649 22.3618 30.3507C23.4706 30.3994 24.5816 30.3995 25.6903 30.3442C25.145 31.1732 24.5944 31.9312 24.0465 32.6062ZM29.7556 25.5316C30.1299 26.486 30.4453 27.4092 30.6959 28.2871C29.884 28.4944 29.0075 28.6614 28.084 28.7853C28.6807 27.7269 29.2406 26.6423 29.7556 25.5316ZM26.5641 28.9475C24.8681 29.0831 23.1615 29.0816 21.4649 28.9586C20.5008 27.3832 19.6426 25.7263 18.9019 24.0062C19.6391 22.2897 20.491 20.6361 21.4505 19.0632C23.1483 18.9196 24.8566 18.9192 26.5544 19.064C27.5057 20.6369 28.3563 22.2862 29.1107 23.9872C28.3653 25.7028 27.5089 27.3598 26.5641 28.9475ZM30.3749 11.5794C32.1206 12.7058 31.3436 16.7063 30.9622 18.4459C29.8006 18.146 28.5391 17.9228 27.2184 17.7841C26.449 16.5585 25.6518 15.444 24.8516 14.4794C26.0249 13.214 28.6462 10.464 30.3749 11.5794Z" fill="#53C1DE"/>
</g>
<defs>
<clipPath id="clip0_2315_312">
<rect width="49" height="48" fill="white"/>
</clipPath>
</defs>
</svg>
