<svg width="210" height="175" viewBox="0 0 210 175" fill="none" xmlns="http://www.w3.org/2000/svg">
<path fill-rule="evenodd" clip-rule="evenodd" d="M34.215 70.7875L34.2225 101.732C34.2225 102.835 33.735 103.878 32.9025 104.59C29.46 107.515 25.5375 109 21.5625 109C16.62 109 12 106.735 8.29502 102.73C3.33002 97.3675 0 88.75 0 79C0 69.25 3.33002 60.6325 8.29502 55.27C12 51.265 16.62 49 21.5625 49C24.825 49 28.0575 50.005 31.0125 51.985C42.045 21.8125 71.025 0.25 105 0.25C138.975 0.25 167.955 21.8125 178.988 51.985C181.943 50.005 185.175 49 188.438 49C193.38 49 198 51.265 201.705 55.27C206.67 60.6325 210 69.25 210 79C210 88.75 206.67 97.3675 201.705 102.73C198 106.735 193.38 109 188.438 109C185.175 109 181.943 107.995 178.988 106.015C168.51 134.657 141.878 155.53 110.145 157.585C110.265 158.26 110.332 158.943 110.332 159.625C110.332 163.12 108.758 166.397 105.923 169.022C102.323 172.352 96.5475 174.625 90 174.625C83.4525 174.625 77.6775 172.352 74.0775 169.022C71.2425 166.397 69.6675 163.12 69.6675 159.625C69.6675 156.805 70.71 154.015 72.7875 151.57C73.5 150.73 74.5425 150.25 75.645 150.25H104.355C104.468 150.25 104.573 150.257 104.678 150.265C104.783 150.257 104.895 150.25 105 150.25C141.548 150.25 171.705 122.673 175.785 87.2125V70.7875C171.705 35.3275 141.548 7.75 105 7.75C68.4525 7.75 38.295 35.3275 34.215 70.7875ZM26.7225 99.865L26.715 58.135C25.095 57.0775 23.3475 56.5 21.5625 56.5C18.6375 56.5 15.99 58 13.8 60.3625C9.91497 64.5625 7.5 71.365 7.5 79C7.5 86.635 9.91497 93.4375 13.8 97.6375C15.99 100 18.6375 101.5 21.5625 101.5C23.3475 101.5 25.095 100.922 26.7225 99.865ZM183.285 87.6175V99.865C184.905 100.922 186.652 101.5 188.438 101.5C191.363 101.5 194.01 100 196.2 97.6375C200.085 93.4375 202.5 86.635 202.5 79C202.5 71.365 200.085 64.5625 196.2 60.3625C194.01 58 191.363 56.5 188.438 56.5C186.652 56.5 184.905 57.0775 183.285 58.135V70.375V87.6175ZM77.625 157.75C77.3325 158.35 77.1675 158.98 77.1675 159.625C77.1675 161.56 78.51 163.203 80.385 164.478C82.845 166.143 86.25 167.125 90 167.125C93.75 167.125 97.155 166.143 99.615 164.478C101.49 163.203 102.832 161.56 102.832 159.625C102.832 158.98 102.667 158.357 102.375 157.75H77.625ZM93.33 130.195C92.7975 130.382 90.6525 131.147 89.04 131.942C82.4175 135.212 73.29 141.122 73.29 141.122C71.97 141.977 70.2525 141.918 69 140.973C67.74 140.035 67.2075 138.408 67.6575 136.9C67.6575 136.9 70.3275 128.05 70.92 121.908C71.0175 120.873 70.9575 119.492 70.92 118.922C59.6475 109.292 52.5 94.975 52.5 79C52.5 50.0275 76.0275 26.5 105 26.5C133.973 26.5 157.5 50.0275 157.5 79C157.5 107.972 133.973 131.5 105 131.5C100.988 131.5 97.0875 131.05 93.33 130.195ZM76.26 113.62C77.445 114.602 78.465 116.68 78.5175 119.642C78.57 122.425 77.91 126.355 77.145 129.955C80.985 127.682 85.455 125.193 88.665 123.865C91.3275 122.763 93.51 122.53 94.6125 122.792C97.95 123.58 101.423 124 105 124C129.833 124 150 103.833 150 79C150 54.1675 129.833 34 105 34C80.1675 34 60 54.1675 60 79C60 92.9125 66.33 105.362 76.26 113.62ZM105 67.75C111.21 67.75 116.25 72.79 116.25 79C116.25 85.21 111.21 90.25 105 90.25C98.79 90.25 93.75 85.21 93.75 79C93.75 72.79 98.79 67.75 105 67.75ZM105 75.25C102.93 75.25 101.25 76.93 101.25 79C101.25 81.07 102.93 82.75 105 82.75C107.07 82.75 108.75 81.07 108.75 79C108.75 76.93 107.07 75.25 105 75.25ZM78.75 67.75C84.96 67.75 90 72.79 90 79C90 85.21 84.96 90.25 78.75 90.25C72.54 90.25 67.5 85.21 67.5 79C67.5 72.79 72.54 67.75 78.75 67.75ZM78.75 75.25C76.68 75.25 75 76.93 75 79C75 81.07 76.68 82.75 78.75 82.75C80.82 82.75 82.5 81.07 82.5 79C82.5 76.93 80.82 75.25 78.75 75.25ZM131.25 67.75C137.46 67.75 142.5 72.79 142.5 79C142.5 85.21 137.46 90.25 131.25 90.25C125.04 90.25 120 85.21 120 79C120 72.79 125.04 67.75 131.25 67.75ZM131.25 75.25C129.18 75.25 127.5 76.93 127.5 79C127.5 81.07 129.18 82.75 131.25 82.75C133.32 82.75 135 81.07 135 79C135 76.93 133.32 75.25 131.25 75.25Z" fill="white"/>
</svg>
