<svg width="100" height="81" viewBox="0 0 100 81" fill="none" xmlns="http://www.w3.org/2000/svg">
<g clip-path="url(#clip0_2689_5733)">
<path d="M78.6954 39.3557C76.1738 34.624 70.2804 32.839 65.5488 35.3607C62.5737 36.9473 60.7604 39.8657 60.4487 43.0107C59.6554 49.4423 55.8587 55.4207 49.7104 58.7073C39.6804 64.0624 27.1854 60.2657 21.8304 50.2357C16.4754 40.2057 20.272 27.7107 30.3021 22.3557C36.4504 19.069 43.5054 19.239 49.2854 22.1573C49.3987 22.214 49.5121 22.2423 49.5971 22.299C49.6254 22.3273 49.6821 22.3273 49.7104 22.3557C52.4021 23.6307 55.6321 23.6873 58.4654 22.1573C63.1971 19.6357 64.9821 13.7706 62.4604 9.03897C61.4688 7.1973 59.9671 5.78064 58.2388 4.93064V4.9023C46.9904 -0.849371 33.1921 -1.18937 21.1787 5.21397C1.68536 15.6123 -5.68131 39.8373 4.71703 59.3307C15.1154 78.824 39.3404 86.1907 58.8337 75.764C70.5638 69.5023 77.8738 58.254 79.5738 46.014C80.0838 43.8323 79.8288 41.4807 78.6954 39.3557Z" fill="#FF4F38"/>
<path d="M77.5056 3.8823C72.944 6.31897 70.224 10.824 69.799 15.6123C69.2606 20.5706 66.399 25.1606 61.6673 27.6823C57.304 30.0057 52.3456 30.034 48.1523 28.2206C43.8173 25.359 38.0939 24.9056 33.1923 27.5123C26.0523 31.309 23.3606 40.2057 27.1573 47.3457C30.9539 54.4857 39.8506 57.1773 46.9906 53.3807C51.5806 50.9157 54.329 46.354 54.6973 41.509C55.3206 36.6923 58.1823 32.244 62.7723 29.779C67.504 27.2573 72.944 27.4273 77.3356 29.7507L77.3923 29.694C81.5855 31.9607 86.7707 32.159 91.304 29.7507C98.444 25.954 101.135 17.0573 97.339 9.9173C93.514 2.77729 84.6456 0.0572964 77.5056 3.8823Z" fill="white"/>
</g>
<defs>
<clipPath id="clip0_2689_5733">
<rect width="100" height="81" fill="white"/>
</clipPath>
</defs>
</svg>
