<svg width="224" height="70" viewBox="0 0 224 70" fill="none" xmlns="http://www.w3.org/2000/svg">
<path d="M74.0746 40.1156C74.0771 44.5829 73.062 48.9938 71.1043 53.0228C69.1466 57.0518 66.2962 60.5961 62.7635 63.3942C65.4672 60.0817 65.6062 54.3344 65.6062 54.3344C66.6684 54.0508 68.2326 52.4402 68.2326 52.4402C66.4579 51.1076 65.529 48.0274 65.1099 43.3386C64.6908 38.6497 68.3022 32.3446 68.5861 29.55C68.8699 26.7553 67.3771 27.1684 66.5969 28.7447C65.8418 30.2525 61.6163 38.981 61.0505 40.028C61.4483 39.0647 62.4023 35.1888 60.2973 32.8758C57.5936 29.9003 53.6539 30.8103 52.0356 32.6264C51.7556 31.8554 50.0928 30.2391 48.2697 31.0159C44.5058 32.6264 47.279 39.6968 40.9582 39.6968C42.8372 41.294 46.7827 41.2388 47.7039 38.4384C48.6251 35.6381 49.5482 33.6963 51.0932 34.2008C46.7769 37.7341 50.1855 43.6203 54.0189 42.7675C53.3276 44.9206 46.5606 51.4693 45.568 52.583C44.5753 53.6967 44.5 55.3167 46.4911 54.5457C48.4822 53.7747 53.9494 47.8275 54.7316 47.8275C55.5137 47.8275 55.5832 52.3774 52.5319 57.4299C52.5319 57.4299 55.0425 57.4165 55.8285 57.2109C55.8285 57.2109 55.7087 63.9025 49.1233 69.5394C47.3512 69.8501 45.5545 70.0042 43.7546 70.0001C42.4795 69.9993 41.2057 69.9211 39.9404 69.7659C30.323 63.9691 31.4431 54.1041 32.7814 53.2645C34.1198 52.425 37.0571 54.3116 39.081 55.0959C41.9238 56.2039 42.6287 54.1536 41.2961 53.2645C39.9636 52.3755 34.2627 49.4305 32.4396 45.4993C39.7512 44.0677 40.2822 35.1469 35.8482 31.8478C31.6575 28.7371 28.5096 30.045 26.8951 25.6188C26.8314 28.7371 29.0194 31.4975 29.4501 31.8478C24.3594 31.8211 21.93 40.1099 26.8951 43.6146C24.4077 42.1754 21.6982 39.594 17.7392 33.5973C16.6423 31.9449 14.8965 32.4132 15.7482 34.789C16.5998 37.1648 21.7832 45.0805 21.928 47.2488C22.0806 49.6989 18.7357 53.967 21.1942 60.0684C17.9086 56.4612 15.5624 52.1203 14.3579 47.4201C13.1535 42.7199 13.127 37.8014 14.2806 33.0888C15.4343 28.3762 17.7335 24.011 20.9801 20.3696C24.2266 16.7282 28.3229 13.9199 32.9159 12.1869C37.5088 10.4539 42.4604 9.8482 47.3437 10.4221C52.227 10.9959 56.8954 12.7321 60.9464 15.4809C64.9973 18.2297 68.3091 21.9086 70.5962 26.2003C72.8833 30.492 74.0771 35.2677 74.0746 40.1156Z" fill="#103741"/>
<path d="M73.7754 50.267C76.9132 50.267 79.457 46.9054 79.457 42.7587C79.457 38.612 76.9132 35.2505 73.7754 35.2505C70.6375 35.2505 68.0938 38.612 68.0938 42.7587C68.0938 46.9054 70.6375 50.267 73.7754 50.267Z" fill="#506900"/>
<path d="M48.7418 18.3426C53.0401 18.3426 56.5245 15.3339 56.5245 11.6224C56.5245 7.91104 53.0401 4.90234 48.7418 4.90234C44.4434 4.90234 40.959 7.91104 40.959 11.6224C40.959 15.3339 44.4434 18.3426 48.7418 18.3426Z" fill="#EC008C"/>
<path d="M18.4475 30.1034C22.0952 30.1034 25.0523 27.4706 25.0523 24.2228C25.0523 20.9751 22.0952 18.3423 18.4475 18.3423C14.7998 18.3423 11.8428 20.9751 11.8428 24.2228C11.8428 27.4706 14.7998 30.1034 18.4475 30.1034Z" fill="#EF4136"/>
<path d="M34.1473 68.4649C31.0498 67.4407 28.1397 65.9321 25.5283 63.9969C25.5283 63.9969 25.5147 63.976 25.5012 63.9684C23.1394 61.3736 24.2015 57.7051 25.1922 57.4424C27.1273 56.9341 29.2922 65.5656 34.1473 68.4649Z" fill="#103741"/>
<path d="M59.4864 65.663C57.7971 66.6745 56.0128 67.5231 54.1582 68.1968C59.4941 61.8422 59.6544 56.1597 61.0082 56.1597C61.4833 56.1597 62.6922 59.0152 59.4864 65.663Z" fill="#103741"/>
<path d="M79.4565 42.7593C79.4565 46.9094 76.915 50.2695 73.771 50.2695C73.2887 50.2688 72.8097 50.1897 72.3535 50.0353C74.0466 45.2961 74.4983 40.2121 73.6667 35.2549H73.771C76.915 35.2549 79.4565 38.6149 79.4565 42.7593Z" fill="#8DC63F"/>
<path d="M56.528 11.6129C56.5298 12.0578 56.478 12.5013 56.3736 12.9341C52.4136 11.1495 48.1092 10.2293 43.755 10.2365C42.8609 10.2365 41.9725 10.2784 41.0996 10.3546C41.7852 7.24962 44.9485 4.90234 48.7414 4.90234C53.0422 4.90234 56.528 7.91021 56.528 11.6129Z" fill="#F763A7"/>
<path d="M22.027 19.2833C19.1438 22.194 16.8977 25.6573 15.428 29.4587C13.3037 28.4802 11.8379 26.5041 11.8379 24.2254C11.8379 20.9776 14.7984 18.341 18.4446 18.341C19.7029 18.3323 20.9403 18.6578 22.027 19.2833Z" fill="#FBB040"/>
<path d="M12.0989 52.3215C12.0989 52.5097 12.0423 52.6938 11.9362 52.8503C11.8301 53.0068 11.6793 53.1288 11.5029 53.2009C11.3265 53.2729 11.1324 53.2918 10.9451 53.2551C10.7578 53.2183 10.5858 53.1277 10.4508 52.9945C10.3157 52.8614 10.2238 52.6918 10.1865 52.5072C10.1493 52.3225 10.1684 52.1312 10.2415 51.9572C10.3145 51.7833 10.4383 51.6346 10.597 51.53C10.7558 51.4255 10.9425 51.3696 11.1334 51.3696C11.3895 51.3696 11.6351 51.4699 11.8161 51.6484C11.9972 51.8269 12.0989 52.069 12.0989 52.3215Z" fill="#EC008C"/>
<path d="M69.4883 67.0241C69.4883 67.2644 69.416 67.4992 69.2807 67.6989C69.1453 67.8987 68.9529 68.0543 68.7278 68.1463C68.5027 68.2382 68.255 68.2622 68.016 68.2154C67.777 68.1685 67.5575 68.0528 67.3852 67.883C67.2129 67.7131 67.0956 67.4967 67.0481 67.2611C67.0006 67.0255 67.0249 66.7813 67.1182 66.5593C67.2114 66.3374 67.3693 66.1477 67.5719 66.0143C67.7745 65.8808 68.0127 65.8096 68.2563 65.8096C68.5831 65.8096 68.8964 65.9375 69.1275 66.1653C69.3585 66.3931 69.4883 66.702 69.4883 67.0241Z" fill="#EF4136"/>
<path d="M73.8439 17.1332C73.8443 17.3725 73.7726 17.6065 73.6381 17.8055C73.5035 18.0046 73.312 18.1599 73.0879 18.2516C72.8637 18.3433 72.617 18.3674 72.379 18.3208C72.141 18.2743 71.9223 18.1591 71.7507 17.9899C71.5791 17.8207 71.4623 17.6052 71.4151 17.3705C71.3678 17.1358 71.3923 16.8926 71.4853 16.6716C71.5783 16.4507 71.7358 16.2619 71.9377 16.1292C72.1397 15.9965 72.377 15.9259 72.6197 15.9263C72.9444 15.9263 73.2557 16.0534 73.4853 16.2798C73.7149 16.5061 73.8439 16.8131 73.8439 17.1332Z" fill="#2BB673"/>
<path d="M2.45229 42.7616C2.45267 43.0009 2.38104 43.2349 2.24646 43.434C2.11187 43.6331 1.92039 43.7883 1.69626 43.88C1.47214 43.9718 1.22544 43.9959 0.987413 43.9493C0.749385 43.9027 0.530724 43.7875 0.359129 43.6183C0.187533 43.4492 0.0707152 43.2336 0.0234657 42.9989C-0.0237838 42.7642 0.000664057 42.521 0.0937073 42.3001C0.186751 42.0791 0.344207 41.8903 0.546141 41.7576C0.748075 41.6249 0.985401 41.5543 1.22807 41.5547C1.55275 41.5547 1.86415 41.6818 2.09373 41.9082C2.32331 42.1345 2.45229 42.4415 2.45229 42.7616Z" fill="#2BB673"/>
<path d="M34.927 2.80011C34.927 2.98009 34.8729 3.15602 34.7715 3.30567C34.6701 3.45531 34.5259 3.57195 34.3573 3.64082C34.1886 3.70969 34.003 3.72771 33.824 3.6926C33.6449 3.65749 33.4805 3.57082 33.3514 3.44356C33.2223 3.3163 33.1344 3.15416 33.0988 2.97764C33.0632 2.80112 33.0815 2.61816 33.1513 2.45188C33.2212 2.2856 33.3395 2.14349 33.4913 2.0435C33.643 1.94351 33.8215 1.89014 34.004 1.89014C34.2488 1.89014 34.4836 1.98601 34.6567 2.15666C34.8298 2.32732 34.927 2.55877 34.927 2.80011Z" fill="#EF4136"/>
<path d="M60.4198 2.31111C60.4198 2.76828 60.2822 3.21519 60.0246 3.59529C59.7669 3.97539 59.4007 4.27161 58.9722 4.44648C58.5438 4.62134 58.0723 4.667 57.6176 4.57767C57.1628 4.48834 56.7451 4.26804 56.4174 3.94463C56.0896 3.62123 55.8665 3.20925 55.7763 2.76081C55.686 2.31238 55.7327 1.84763 55.9104 1.42537C56.0882 1.0031 56.3889 0.642285 56.7747 0.388566C57.1604 0.134847 57.6138 -0.000375801 58.0775 7.84432e-07C58.3853 6.81327e-07 58.69 0.0597938 58.9743 0.175961C59.2586 0.292129 59.5169 0.462394 59.7344 0.677025C59.9519 0.891656 60.1244 1.14644 60.242 1.42683C60.3596 1.70722 60.42 2.0077 60.4198 2.31111Z" fill="#FBB040"/>
<path d="M17.6636 9.24048C17.664 9.55909 17.5685 9.87066 17.3893 10.1358C17.21 10.4009 16.955 10.6076 16.6565 10.7298C16.3581 10.852 16.0295 10.8841 15.7125 10.8222C15.3955 10.7603 15.1043 10.607 14.8756 10.3819C14.647 10.1567 14.4912 9.86974 14.428 9.55728C14.3648 9.24481 14.3971 8.92089 14.5206 8.62649C14.6442 8.33209 14.8536 8.08045 15.1223 7.9034C15.391 7.72635 15.7069 7.63184 16.0301 7.63184C16.2445 7.63159 16.4569 7.67301 16.6551 7.75374C16.8532 7.83447 17.0333 7.95292 17.185 8.10232C17.3368 8.25172 17.4571 8.42914 17.5392 8.62444C17.6214 8.81973 17.6636 9.02907 17.6636 9.24048Z" fill="#8DC63F"/>
<path d="M11.1284 32.205C11.1284 32.6895 10.9827 33.1632 10.7096 33.5662C10.4365 33.9691 10.0484 34.2831 9.59433 34.4685C9.14024 34.654 8.64057 34.7025 8.1585 34.608C7.67644 34.5134 7.23363 34.2801 6.88608 33.9374C6.53853 33.5948 6.30184 33.1582 6.20595 32.683C6.11006 32.2077 6.15929 31.7151 6.34738 31.2674C6.53547 30.8197 6.85399 30.437 7.26266 30.1678C7.67134 29.8986 8.15181 29.7549 8.64332 29.7549C9.30242 29.7549 9.93452 30.013 10.4006 30.4725C10.8666 30.932 11.1284 31.5552 11.1284 32.205Z" fill="#0899D0"/>
<path d="M81.351 57.4213C81.3514 57.9063 81.2059 58.3806 80.9328 58.784C80.6598 59.1875 80.2715 59.5021 79.8171 59.688C79.3627 59.8738 78.8626 59.9227 78.38 59.8283C77.8974 59.7339 77.4541 59.5005 77.1061 59.1577C76.7581 58.8148 76.521 58.3779 76.4249 57.9022C76.3288 57.4265 76.3779 56.9334 76.5661 56.4853C76.7543 56.0371 77.073 55.6541 77.4821 55.3846C77.8911 55.115 78.372 54.9712 78.864 54.9712C79.5233 54.9712 80.1556 55.2293 80.6219 55.6887C81.0883 56.1481 81.3505 56.7713 81.351 57.4213Z" fill="#0899D0"/>
<path d="M41.4559 24.4339C41.4559 24.7665 41.3559 25.0915 41.1685 25.368C40.981 25.6445 40.7146 25.8599 40.403 25.9871C40.0913 26.1143 39.7484 26.1475 39.4176 26.0824C39.0868 26.0174 38.783 25.8571 38.5446 25.6219C38.3062 25.3866 38.144 25.0869 38.0784 24.7607C38.0129 24.4345 38.0469 24.0964 38.1762 23.7893C38.3056 23.4822 38.5244 23.2198 38.8051 23.0353C39.0857 22.8508 39.4155 22.7526 39.7529 22.7529C39.9767 22.7529 40.1983 22.7964 40.405 22.8809C40.6118 22.9654 40.7996 23.0893 40.9578 23.2454C41.116 23.4015 41.2414 23.5868 41.3269 23.7908C41.4123 23.9947 41.4562 24.2133 41.4559 24.4339Z" fill="#F763A7"/>
<path d="M50.792 23.5925C50.792 23.7585 50.742 23.9208 50.6484 24.0589C50.5549 24.197 50.4219 24.3046 50.2663 24.3681C50.1107 24.4316 49.9395 24.4483 49.7743 24.4159C49.6091 24.3835 49.4574 24.3035 49.3383 24.1861C49.2192 24.0687 49.1381 23.9191 49.1052 23.7563C49.0724 23.5934 49.0892 23.4246 49.1537 23.2712C49.2181 23.1178 49.3273 22.9867 49.4673 22.8944C49.6074 22.8022 49.772 22.7529 49.9404 22.7529C50.1663 22.7529 50.3828 22.8414 50.5425 22.9988C50.7022 23.1563 50.792 23.3698 50.792 23.5925Z" fill="#FBB040"/>
<path d="M57.5444 18.9715C57.5444 19.2 57.4756 19.4234 57.3468 19.6135C57.218 19.8035 57.035 19.9516 56.8208 20.0391C56.6066 20.1265 56.371 20.1494 56.1436 20.1048C55.9163 20.0602 55.7074 19.9502 55.5435 19.7886C55.3796 19.627 55.2679 19.4211 55.2227 19.1969C55.1775 18.9728 55.2007 18.7404 55.2894 18.5293C55.3781 18.3181 55.5284 18.1376 55.7211 18.0107C55.9139 17.8837 56.1405 17.8159 56.3723 17.8159C56.6831 17.8159 56.9812 17.9377 57.2011 18.1544C57.4209 18.3711 57.5444 18.665 57.5444 18.9715Z" fill="#8DC63F"/>
<path d="M41.9488 28.8872L42.8003 30.5891L44.7062 30.8614L43.3275 32.1844L43.6538 34.0539L41.9488 33.1725L40.2477 34.0539L40.5721 32.1844L39.1934 30.8614L41.0992 30.5891L41.9488 28.8872Z" fill="#FC800A"/>
<path d="M59.7095 23.5942L60.3776 24.9306L61.8741 25.1439L60.7927 26.1852L61.0476 27.6549L59.7095 26.9619L58.3694 27.6549L58.6262 26.1852L57.543 25.1439L59.0394 24.9306L59.7095 23.5942Z" fill="#FC800A"/>
<path d="M34.8764 14.5884L35.5232 15.881L36.9695 16.0866L35.9229 17.0918L36.1701 18.5119L34.8764 17.8418L33.5846 18.5119L33.8317 17.0918L32.7852 16.0866L34.2314 15.881L34.8764 14.5884Z" fill="#FC800A"/>
<path d="M206.853 55.5033C205.39 55.5033 204.341 55.3083 203.709 54.9184C203.115 54.4895 202.74 53.9241 202.581 53.2223C202.463 52.5205 202.403 51.7991 202.403 51.0583V30.6467C202.403 29.8668 202.482 29.1455 202.641 28.4827C202.799 27.8198 203.175 27.2935 203.768 26.9036C204.401 26.4747 205.449 26.2602 206.912 26.2602C208.297 26.2602 209.286 26.4552 209.879 26.8451C210.512 27.196 210.907 27.6249 211.066 28.1318C211.224 28.5996 211.303 29.009 211.303 29.36L210.591 29.7109C210.67 29.5549 210.868 29.282 211.184 28.8921C211.54 28.4632 212.015 28.0343 212.608 27.6054C213.202 27.1375 213.914 26.7476 214.744 26.4357C215.614 26.1237 216.603 25.9678 217.711 25.9678C218.146 25.9678 218.62 26.0068 219.135 26.0847C219.688 26.1237 220.242 26.2407 220.796 26.4357C221.389 26.5916 221.923 26.8256 222.398 27.1375C222.872 27.4104 223.248 27.7613 223.525 28.1902C223.842 28.6191 224 29.1455 224 29.7694C224 31.368 223.624 32.7327 222.872 33.8634C222.121 34.9551 221.172 35.501 220.025 35.501C219.352 35.501 218.878 35.4425 218.601 35.3255C218.324 35.2086 218.086 35.0916 217.889 34.9746C217.73 34.8577 217.533 34.7602 217.295 34.6822C217.058 34.5652 216.623 34.5067 215.99 34.5067C215.397 34.5067 214.823 34.5847 214.269 34.7407C213.755 34.8967 213.261 35.1501 212.786 35.501C212.351 35.8129 211.995 36.2223 211.718 36.7292C211.481 37.1971 211.362 37.7235 211.362 38.3083V51.1753C211.362 51.9161 211.283 52.6374 211.125 53.3393C211.006 54.0021 210.631 54.5285 209.998 54.9184C209.365 55.3083 208.317 55.5033 206.853 55.5033Z" fill="#103741"/>
<path d="M191.399 55.4448C189.935 55.4448 188.848 55.1914 188.136 54.6845C187.463 54.1776 187.127 53.5538 187.127 52.8129L187.72 51.8187C187.483 52.2086 187.028 52.696 186.356 53.2808C185.683 53.8267 184.813 54.3336 183.745 54.8015C182.677 55.2304 181.352 55.4448 179.77 55.4448C177.951 55.4448 176.21 55.0549 174.549 54.2751C172.927 53.4953 171.484 52.423 170.218 51.0584C168.952 49.6547 167.944 48.0756 167.192 46.321C166.48 44.5664 166.124 42.7143 166.124 40.7648C166.124 38.8543 166.48 37.0412 167.192 35.3256C167.944 33.571 168.952 32.0309 170.218 30.7052C171.523 29.3405 172.987 28.2683 174.608 27.4885C176.23 26.7086 177.951 26.3187 179.77 26.3187C181.234 26.3187 182.48 26.5332 183.508 26.9621C184.536 27.352 185.387 27.8199 186.059 28.3658C186.771 28.9116 187.305 29.438 187.661 29.9449L187.186 29.1261C187.147 28.1903 187.463 27.4885 188.136 27.0206C188.848 26.5137 189.955 26.2603 191.458 26.2603C192.882 26.2603 193.891 26.4747 194.484 26.9036C195.117 27.3325 195.493 27.8979 195.611 28.5997C195.77 29.3015 195.849 30.0424 195.849 30.8222V50.9999C195.849 51.7407 195.77 52.462 195.611 53.1639C195.493 53.8657 195.117 54.4311 194.484 54.86C193.891 55.2499 192.862 55.4448 191.399 55.4448ZM181.075 46.7304C182.104 46.7304 183.033 46.4769 183.864 45.9701C184.734 45.4242 185.407 44.7029 185.881 43.8061C186.395 42.9093 186.653 41.915 186.653 40.8233C186.653 39.6926 186.395 38.6983 185.881 37.8405C185.367 36.9437 184.675 36.2419 183.805 35.735C182.934 35.1891 181.985 34.9162 180.957 34.9162C179.81 34.9162 178.781 35.1891 177.872 35.735C177.001 36.2809 176.289 37.0022 175.736 37.899C175.221 38.7958 174.964 39.8095 174.964 40.9403C174.964 41.993 175.221 42.9678 175.736 43.8646C176.289 44.7224 177.021 45.4242 177.931 45.9701C178.88 46.4769 179.928 46.7304 181.075 46.7304Z" fill="#7DBE48"/>
<path d="M156.266 55.5029C154.249 55.5029 152.509 55.2885 151.045 54.8596C149.621 54.4307 148.435 53.7678 147.485 52.871C146.536 51.9742 145.824 50.8435 145.35 49.4788C144.914 48.0752 144.697 46.4181 144.697 44.5075V20.7622C144.697 19.9823 144.756 19.2805 144.875 18.6567C145.033 18.0328 145.429 17.5259 146.062 17.136C146.694 16.7071 147.723 16.4927 149.147 16.4927C150.571 16.4927 151.599 16.7071 152.232 17.136C152.865 17.5649 153.241 18.1108 153.359 18.7736C153.517 19.4365 153.597 20.1578 153.597 20.9376V44.1566C153.597 44.7805 153.636 45.3068 153.715 45.7357C153.834 46.1256 153.992 46.4181 154.19 46.613C154.388 46.808 154.665 46.9444 155.021 47.0224C155.377 47.1004 155.812 47.1394 156.326 47.1394C157.196 47.1394 157.967 47.2174 158.64 47.3733C159.312 47.5293 159.826 47.8802 160.182 48.4261C160.578 48.972 160.776 49.8882 160.776 51.1749C160.776 52.5786 160.558 53.5924 160.123 54.2162C159.688 54.8401 159.114 55.2105 158.402 55.3274C157.73 55.4444 157.018 55.5029 156.266 55.5029ZM142.858 26.7277H149.384L157.572 26.4938C158.323 26.4938 159.035 26.5718 159.708 26.7277C160.38 26.8447 160.934 27.2151 161.369 27.839C161.804 28.4628 162.022 29.4961 162.022 30.9387C162.022 32.2644 161.804 33.2392 161.369 33.863C160.973 34.4869 160.439 34.8963 159.767 35.0913C159.095 35.2472 158.363 35.3252 157.572 35.3252L149.799 35.1497H142.62C141.473 35.1108 140.662 34.7793 140.188 34.1555C139.753 33.4926 139.535 32.4009 139.535 30.8803C139.535 29.4766 139.812 28.4433 140.366 27.7805C140.92 27.0787 141.75 26.7277 142.858 26.7277Z" fill="white"/>
<path d="M130.023 55.5028C128.559 55.5028 127.511 55.3078 126.878 54.9179C126.285 54.489 125.909 53.9432 125.751 53.2803C125.632 52.5785 125.573 51.8572 125.573 51.1163V30.7047C125.573 29.9249 125.632 29.2035 125.751 28.5407C125.909 27.8779 126.305 27.3515 126.937 26.9616C127.57 26.5327 128.618 26.3182 130.082 26.3182C131.506 26.3182 132.514 26.5327 133.108 26.9616C133.741 27.3905 134.116 27.9363 134.235 28.5992C134.393 29.262 134.472 30.0029 134.472 30.8217V51.1748C134.472 51.9156 134.393 52.637 134.235 53.3388C134.116 54.0016 133.741 54.528 133.108 54.9179C132.514 55.3078 131.486 55.5028 130.023 55.5028ZM130.023 22.0487C128.52 22.0487 127.452 21.8343 126.819 21.4054C126.186 20.9765 125.79 20.4111 125.632 19.7093C125.513 19.0075 125.454 18.2666 125.454 17.4868C125.454 16.668 125.533 15.9272 125.691 15.2644C125.85 14.5625 126.245 14.0167 126.878 13.6267C127.511 13.1978 128.579 12.9834 130.082 12.9834C131.545 12.9834 132.594 13.1978 133.226 13.6267C133.859 14.0556 134.235 14.621 134.354 15.3228C134.512 16.0247 134.591 16.7655 134.591 17.5453C134.591 18.3251 134.512 19.066 134.354 19.7678C134.235 20.4696 133.859 21.035 133.226 21.4639C132.594 21.8538 131.526 22.0487 130.023 22.0487Z" fill="#FC800A"/>
<path d="M94.7008 55.5034C93.2769 55.5034 92.2484 55.3084 91.6156 54.9185C90.9827 54.4896 90.5872 53.9243 90.429 53.2224C90.3103 52.5206 90.251 51.7993 90.251 51.0584V19.0081C90.251 18.2672 90.3103 17.5654 90.429 16.9026C90.5872 16.2007 90.9827 15.6548 91.6156 15.2649C92.2484 14.836 93.2966 14.6216 94.7601 14.6216C96.2632 14.6216 97.3113 14.836 97.9047 15.2649C98.5375 15.6938 98.9133 16.2397 99.0319 16.9026C99.1902 17.5654 99.2693 18.2867 99.2693 19.0665V29.1846L111.966 16.0837C112.757 15.3039 113.469 14.7581 114.102 14.4461C114.774 14.1342 115.447 14.0757 116.119 14.2707C116.831 14.4656 117.583 14.953 118.374 15.7328C119.719 16.9415 120.391 18.0138 120.391 18.9496C120.431 19.8463 119.877 20.8601 118.73 21.9908L105.084 35.0917L118.848 48.0756C120.075 49.2844 120.648 50.3761 120.569 51.3509C120.529 52.2866 119.837 53.3004 118.492 54.3921C117.543 55.172 116.713 55.6593 116.001 55.8543C115.328 56.0882 114.695 56.0298 114.102 55.6788C113.509 55.3669 112.836 54.8016 112.085 53.9827L99.2693 40.8234V51.1169C99.2693 51.8577 99.1902 52.5791 99.0319 53.2809C98.9133 53.9438 98.5375 54.4896 97.9047 54.9185C97.2718 55.3084 96.2038 55.5034 94.7008 55.5034Z" fill="#FE5A86"/>
</svg>
