<svg width="100" height="189" viewBox="0 0 100 189" fill="none" xmlns="http://www.w3.org/2000/svg">
<path d="M0 145.588V187.5L98.5294 113.235V73.5293L0 145.588Z" fill="url(#paint0_linear_1444_18)"/>
<g filter="url(#filter0_f_1444_18)">
<path d="M75 91.1765L72.0588 94.1177L97.7941 113.235V108.824L75 91.1765Z" fill="#212121"/>
</g>
<path d="M0 39.7059V0L99.2647 72.7941L98.5294 113.235L0 39.7059Z" fill="url(#paint1_linear_1444_18)"/>
<path d="M9.07541 31.8418L14.671 27.036L15.4387 27.5942L14.9111 28.6885L9.1324 33.5568L8.30782 32.9572L9.07541 31.8418ZM12.5906 25.5232L9.50665 32.1554L8.61585 33.1812L7.6965 32.5127L11.1832 24.4997L12.5906 25.5232ZM12.6184 34.3819L17.9456 29.4171L19.3531 30.4406L12.8098 36.2309L11.8905 35.5624L12.6184 34.3819ZM15.87 27.9078L13.0152 34.7429L12.1985 35.7863L11.3739 35.1867L14.2179 28.1772L15.107 27.353L15.87 27.9078ZM19.5836 37.3965L17.8255 36.1181L18.6318 35.0092L20.39 36.2876C20.6617 36.4852 20.915 36.6018 21.1499 36.6374C21.3872 36.6698 21.6038 36.6342 21.8 36.5305C21.9961 36.4268 22.1677 36.2738 22.3147 36.0716C22.4641 35.8663 22.5636 35.6464 22.6132 35.4121C22.6629 35.1777 22.6415 34.9448 22.549 34.7133C22.4565 34.4819 22.2744 34.2674 22.0027 34.0698L20.7374 33.1497L16.5299 38.936L15.1082 37.9022L20.1255 31.0023L22.8125 32.9561C23.3528 33.349 23.7444 33.7835 23.9874 34.2596C24.2358 34.7349 24.3387 35.2178 24.2959 35.7083C24.2532 36.1989 24.0721 36.6637 23.7528 37.1029C23.4289 37.5483 23.0459 37.8591 22.604 38.0352C22.162 38.2112 21.6824 38.2465 21.1651 38.1408C20.651 38.0375 20.1239 37.7894 19.5836 37.3965ZM27.9753 41.1296L25.06 45.1387L23.6952 44.1463L27.4237 39.0187L28.708 39.9526L27.9753 41.1296ZM30.3575 41.1014L29.4138 42.3495C29.3543 42.2917 29.2795 42.2253 29.1893 42.15C29.1046 42.0739 29.0243 42.0083 28.9485 41.9532C28.7558 41.813 28.5699 41.7165 28.391 41.6637C28.2175 41.61 28.049 41.5961 27.8853 41.622C27.7247 41.6501 27.5714 41.7149 27.4252 41.8163C27.2822 41.92 27.1443 42.0564 27.0117 42.2256L26.7988 41.9404C27.0401 41.6087 27.2949 41.3279 27.5634 41.0981C27.8342 40.8652 28.1086 40.6904 28.3866 40.5738C28.6678 40.4595 28.9429 40.4132 29.212 40.435C29.4811 40.4568 29.7357 40.5551 29.9758 40.7296C30.0516 40.7848 30.1245 40.8474 30.1942 40.9175C30.2663 40.9844 30.3208 41.0457 30.3575 41.1014ZM29.4457 48.4727C29.0476 48.1832 28.7365 47.8605 28.5125 47.5044C28.2908 47.1451 28.152 46.7713 28.0963 46.383C28.0437 45.9971 28.0681 45.6115 28.1694 45.2264C28.2731 44.8381 28.4489 44.4733 28.6971 44.1321L28.8349 43.9426C29.1175 43.554 29.4312 43.2388 29.7761 42.9969C30.121 42.7551 30.4823 42.5903 30.8599 42.5027C31.2407 42.4174 31.6256 42.4195 32.0145 42.5091C32.4056 42.5955 32.7876 42.7743 33.1604 43.0453C33.5237 43.3095 33.8023 43.6039 33.9962 43.9284C34.1901 44.2529 34.3014 44.5947 34.3301 44.9537C34.362 45.3149 34.3144 45.686 34.1872 46.0668C34.0623 46.4445 33.8631 46.8213 33.5898 47.1973L33.1762 47.7659L29.1008 44.8024L29.7624 43.8925L32.4968 45.8808L32.5726 45.7766C32.7104 45.587 32.7986 45.3927 32.837 45.1937C32.881 44.9938 32.8672 44.8003 32.7956 44.613C32.7241 44.4258 32.5825 44.2552 32.3708 44.1013C32.1908 43.9703 32.0072 43.8972 31.8203 43.882C31.6333 43.8668 31.4471 43.9004 31.2615 43.9829C31.0792 44.0676 30.8974 44.1914 30.7162 44.3543C30.5404 44.5162 30.3699 44.711 30.2045 44.9384L30.0666 45.128C29.9173 45.3334 29.8079 45.5436 29.7384 45.7587C29.6721 45.9761 29.6467 46.1871 29.6622 46.3915C29.6809 46.5983 29.7423 46.7927 29.8466 46.9748C29.954 47.1592 30.1073 47.3237 30.3063 47.4685C30.5527 47.6477 30.8162 47.7668 31.0968 47.826C31.3829 47.8842 31.6745 47.8717 31.9718 47.7884L32.1114 48.9912C31.8914 49.0679 31.6366 49.1095 31.3468 49.1162C31.0602 49.1251 30.754 49.0812 30.4283 48.9844C30.1049 48.8845 29.7774 48.7139 29.4457 48.4727ZM33.9905 54.6464L38.391 48.5948L39.3279 47.675L40.5269 48.5468L35.3648 55.6458L33.9905 54.6464ZM34.009 47.8064L34.0813 47.7068C34.3662 47.3151 34.6673 46.9907 34.9846 46.7336C35.3074 46.4757 35.6368 46.295 35.9728 46.1916C36.3111 46.085 36.6483 46.0598 36.9843 46.1157C37.3258 46.1708 37.6592 46.3167 37.9846 46.5533C38.2974 46.7808 38.5216 47.0404 38.6572 47.3322C38.7927 47.6239 38.8541 47.9414 38.8412 48.2846C38.8314 48.6301 38.7602 48.9937 38.6276 49.3754C38.4949 49.7571 38.3183 50.1527 38.0978 50.5623L37.9393 50.7803C37.6323 51.1028 37.3184 51.3817 36.9976 51.6169C36.68 51.8544 36.3584 52.0311 36.0327 52.1469C35.7102 52.2649 35.3865 52.3049 35.0617 52.2667C34.7424 52.2277 34.4247 52.0933 34.1088 51.8635C33.7897 51.6315 33.5524 51.36 33.3971 51.049C33.2471 50.7371 33.1718 50.4022 33.1712 50.0444C33.1706 49.6865 33.241 49.3175 33.3822 48.9372C33.529 48.5561 33.7379 48.1792 34.009 47.8064ZM35.4461 48.6993L35.3738 48.7988C35.2199 49.0105 35.0925 49.2221 34.9917 49.4338C34.8932 49.6423 34.8302 49.8452 34.8026 50.0425C34.7782 50.2421 34.7978 50.4278 34.8613 50.5995C34.9271 50.7681 35.05 50.9179 35.2301 51.0488C35.4796 51.2303 35.7193 51.3225 35.9491 51.3253C36.1843 51.3273 36.4071 51.26 36.6176 51.1233C36.8313 50.9888 37.0329 50.8046 37.2224 50.5705L37.6739 49.9497C37.8091 49.7438 37.912 49.5458 37.9827 49.3556C38.0588 49.1646 38.0955 48.9813 38.0929 48.8055C38.0935 48.632 38.0492 48.467 37.9602 48.3105C37.8766 48.1532 37.7416 48.0067 37.5552 47.8712C37.3783 47.7425 37.1979 47.6717 37.0141 47.6588C36.8303 47.6459 36.6473 47.6818 36.4649 47.7666C36.288 47.8504 36.1128 47.9718 35.9394 48.1306C35.7691 48.2917 35.6047 48.4813 35.4461 48.6993ZM41.7995 55.4347L44.6355 51.5345L46.0003 52.5269L42.2718 57.6545L40.9876 56.7206L41.7995 55.4347ZM42.7161 54.4929L43.1258 54.7763C42.8777 55.1175 42.6074 55.4063 42.3147 55.6427C42.0244 55.8759 41.7221 56.0425 41.408 56.1425C41.0961 56.2393 40.7764 56.2604 40.449 56.2059C40.1239 56.1482 39.7987 56.001 39.4733 55.7644C39.2237 55.5829 39.0183 55.3804 38.8572 55.157C38.7015 54.9327 38.603 54.6896 38.5616 54.4277C38.5257 54.1649 38.5524 53.8825 38.6417 53.5803C38.7364 53.2773 38.9079 52.9552 39.156 52.614L41.5647 49.3015L42.9295 50.294L40.5139 53.616C40.4036 53.7676 40.328 53.9082 40.2869 54.0377C40.249 54.1695 40.2391 54.2927 40.2572 54.4073C40.2753 54.5219 40.3182 54.6256 40.386 54.7184C40.457 54.8134 40.5477 54.9011 40.6583 54.9815C40.9395 55.186 41.202 55.29 41.4458 55.2934C41.6928 55.2991 41.9207 55.2282 42.1295 55.0805C42.3437 54.932 42.5393 54.7361 42.7161 54.4929ZM48.4836 54.3326L44.755 59.4602L43.3855 58.4643L47.114 53.3367L48.4836 54.3326ZM48.0005 51.9383C48.1452 51.7393 48.3342 51.6256 48.5674 51.5971C48.8006 51.5687 49.034 51.6394 49.2678 51.8094C49.4985 51.9771 49.6362 52.1763 49.681 52.4069C49.729 52.6398 49.6806 52.8558 49.5359 53.0548C49.3911 53.2539 49.2006 53.3665 48.9642 53.3926C48.731 53.4211 48.4991 53.3514 48.2685 53.1837C48.0347 53.0137 47.8954 52.8134 47.8506 52.5828C47.8058 52.3522 47.8557 52.1374 48.0005 51.9383ZM50.163 57.2636L47.2477 61.2727L45.8829 60.2803L49.6114 55.1528L50.8957 56.0866L50.163 57.2636ZM52.5452 57.2354L51.6015 58.4835C51.542 58.4258 51.4672 58.3593 51.377 58.2841C51.2923 58.208 51.212 58.1423 51.1362 58.0872C50.9435 57.9471 50.7577 57.8506 50.5787 57.7978C50.4053 57.7441 50.2367 57.7301 50.073 57.756C49.9124 57.7842 49.7591 57.8489 49.6129 57.9503C49.4699 58.054 49.3321 58.1904 49.1994 58.3596L48.9866 58.0744C49.2278 57.7427 49.4826 57.462 49.7511 57.2322C50.022 56.9993 50.2964 56.8245 50.5743 56.7079C50.8555 56.5935 51.1306 56.5473 51.3997 56.5691C51.6688 56.5909 51.9234 56.6891 52.1635 56.8637C52.2394 56.9188 52.3122 56.9814 52.382 57.0515C52.4541 57.1184 52.5085 57.1797 52.5452 57.2354ZM51.6334 64.6067C51.2353 64.3173 50.9243 63.9945 50.7002 63.6384C50.4785 63.2791 50.3397 62.9054 50.284 62.5171C50.2314 62.1311 50.2558 61.7455 50.3571 61.3604C50.4608 60.9721 50.6367 60.6074 50.8848 60.2662L51.0226 60.0766C51.3052 59.688 51.6189 59.3728 51.9638 59.1309C52.3087 58.8891 52.67 58.7244 53.0477 58.6368C53.4285 58.5514 53.8133 58.5536 54.2022 58.6431C54.5933 58.7295 54.9753 58.9083 55.3481 59.1794C55.7114 59.4436 55.99 59.7379 56.1839 60.0624C56.3778 60.387 56.4891 60.7287 56.5178 61.0877C56.5497 61.449 56.5021 61.82 56.3749 62.2009C56.25 62.5785 56.0509 62.9553 55.7775 63.3313L55.364 63.9L51.2885 60.9364L51.9501 60.0266L54.6845 62.0149L54.7603 61.9106C54.8981 61.7211 54.9863 61.5268 55.0247 61.3278C55.0687 61.1279 55.0549 60.9343 54.9833 60.747C54.9118 60.5598 54.7702 60.3892 54.5585 60.2353C54.3785 60.1044 54.1949 60.0313 54.008 60.0161C53.821 60.0009 53.6348 60.0345 53.4493 60.1169C53.2669 60.2017 53.0851 60.3254 52.9039 60.4883C52.7282 60.6503 52.5576 60.845 52.3922 61.0725L52.2543 61.262C52.105 61.4674 51.9956 61.6776 51.9261 61.8927C51.8598 62.1102 51.8344 62.3211 51.8499 62.5256C51.8686 62.7324 51.9301 62.9268 52.0343 63.1089C52.1418 63.2932 52.295 63.4578 52.494 63.6025C52.7404 63.7817 53.004 63.9009 53.2845 63.96C53.5706 64.0183 53.8622 64.0058 54.1595 63.9225L54.2991 65.1252C54.0792 65.2019 53.8243 65.2436 53.5345 65.2502C53.2479 65.2591 52.9417 65.2152 52.616 65.1184C52.2927 65.0185 51.9651 64.848 51.6334 64.6067ZM58.905 63.5335L55.9484 67.5996L54.5788 66.6037L58.3074 61.4761L59.5916 62.41L58.905 63.5335ZM57.754 64.7179L57.3749 64.4422C57.6345 64.0852 57.9161 63.7876 58.2196 63.5495C58.5286 63.3106 58.8473 63.1414 59.1755 63.042C59.5092 62.9417 59.8457 62.9207 60.1849 62.979C60.524 63.0373 60.8579 63.1859 61.1865 63.4248C61.414 63.5902 61.5972 63.7766 61.7362 63.9839C61.8775 64.1881 61.9633 64.4123 61.9934 64.6564C62.0291 64.8996 62.0009 65.1641 61.9091 65.4499C61.8195 65.7325 61.6587 66.0334 61.4266 66.3524L58.9387 69.774L57.5738 68.7815L59.9516 65.5117C60.1216 65.2779 60.2209 65.0748 60.2496 64.9025C60.2783 64.7302 60.2526 64.5762 60.1725 64.4407C60.0955 64.3074 59.9765 64.1822 59.8153 64.0651C59.6384 63.9364 59.4572 63.8602 59.2717 63.8364C59.0893 63.8148 58.9084 63.8378 58.7289 63.9053C58.5517 63.9697 58.3805 64.0722 58.2154 64.2129C58.0503 64.3537 57.8965 64.522 57.754 64.7179ZM60.9196 66.7807L60.3867 66.4874C60.6302 66.1525 60.8976 65.8711 61.1888 65.6434C61.4832 65.4179 61.7917 65.2559 62.1145 65.1574C62.4405 65.0612 62.7703 65.0426 63.1041 65.1017C63.4401 65.1577 63.7692 65.3029 64.0915 65.5372C64.3379 65.7164 64.5358 65.9158 64.6851 66.1355C64.8368 66.3521 64.9274 66.5894 64.957 66.8476C64.9921 67.1049 64.9579 67.3844 64.8545 67.6859C64.7543 67.9898 64.5744 68.3202 64.3148 68.6772L61.9337 71.9518L60.5641 70.9559L62.9453 67.6813C63.1176 67.4444 63.2169 67.2413 63.2433 67.0722C63.2752 66.9021 63.2499 66.7509 63.1675 66.6185C63.0905 66.4853 62.973 66.3612 62.8151 66.2464C62.6508 66.1269 62.4829 66.0556 62.3115 66.0323C62.1423 66.0059 61.9753 66.0197 61.8105 66.0737C61.6456 66.1277 61.4875 66.2156 61.3362 66.3374C61.1871 66.456 61.0483 66.6038 60.9196 66.7807ZM65.2815 74.5311C64.8835 74.2417 64.5724 73.9189 64.3484 73.5628C64.1266 73.2035 63.9879 72.8298 63.9321 72.4415C63.8796 72.0555 63.9039 71.6699 64.0053 71.2848C64.1089 70.8965 64.2848 70.5318 64.5329 70.1906L64.6708 70.001C64.9533 69.6124 65.2671 69.2972 65.612 69.0553C65.9569 68.8135 66.3181 68.6488 66.6958 68.5611C67.0766 68.4758 67.4615 68.478 67.8503 68.5675C68.2415 68.6539 68.6235 68.8327 68.9963 69.1038C69.3596 69.368 69.6382 69.6623 69.8321 69.9868C70.0259 70.3113 70.1372 70.6531 70.166 71.0121C70.1979 71.3734 70.1502 71.7444 70.0231 72.1253C69.8981 72.5029 69.699 72.8797 69.4256 73.2557L69.0121 73.8244L64.9366 70.8608L65.5982 69.951L68.3326 71.9393L68.4084 71.835C68.5463 71.6455 68.6344 71.4512 68.6729 71.2521C68.7168 71.0523 68.703 70.8587 68.6315 70.6714C68.56 70.4842 68.4184 70.3136 68.2067 70.1597C68.0266 70.0288 67.8431 69.9557 67.6561 69.9405C67.4692 69.9253 67.2829 69.9589 67.0974 70.0413C66.915 70.126 66.7333 70.2498 66.5521 70.4127C66.3763 70.5747 66.2057 70.7694 66.0403 70.9969L65.9025 71.1864C65.7532 71.3918 65.6437 71.602 65.5743 71.8171C65.5079 72.0346 65.4825 72.2455 65.4981 72.45C65.5167 72.6568 65.5782 72.8512 65.6825 73.0333C65.7899 73.2176 65.9431 73.3822 66.1422 73.5269C66.3886 73.7061 66.6521 73.8253 66.9327 73.8844C67.2187 73.9427 67.5104 73.9302 67.8076 73.8469L67.9473 75.0496C67.7273 75.1263 67.4724 75.168 67.1826 75.1746C66.896 75.1835 66.5899 75.1396 66.2642 75.0428C65.9408 74.9429 65.6132 74.7724 65.2815 74.5311ZM72.5006 73.4704L69.5681 77.5033L68.2033 76.5108L71.9318 71.3833L73.2113 72.3137L72.5006 73.4704ZM71.3643 74.6147L70.9946 74.3459C71.2703 73.9668 71.5674 73.6612 71.8859 73.4291C72.2067 73.1939 72.5336 73.0332 72.8668 72.947C73.2022 72.8577 73.5329 72.8446 73.8589 72.9077C74.1903 72.97 74.5076 73.1114 74.8109 73.332C75.051 73.5066 75.2453 73.701 75.3938 73.9152C75.5423 74.1295 75.6325 74.3641 75.6644 74.6191C75.6995 74.8764 75.6642 75.1575 75.5585 75.4622C75.456 75.7692 75.2738 76.1028 75.0119 76.4629L72.6342 79.7328L71.2599 78.7335L73.6411 75.4589C73.8065 75.2314 73.9035 75.0315 73.9322 74.8592C73.9609 74.6869 73.9321 74.5306 73.8456 74.3905C73.7646 74.2495 73.6357 74.1147 73.4587 73.986C73.2755 73.8528 73.0895 73.7731 72.9008 73.747C72.7153 73.7232 72.5312 73.7438 72.3486 73.809C72.1714 73.8734 71.9986 73.9748 71.8304 74.1132C71.6621 74.2517 71.5067 74.4188 71.3643 74.6147ZM79.9122 77.1863L79.2092 78.1531L76.2237 75.9821L76.9267 75.0154L79.9122 77.1863ZM78.586 74.2876L79.9508 75.2801L76.4256 80.128C76.3176 80.2765 76.2539 80.404 76.2344 80.5106C76.218 80.6194 76.2378 80.7183 76.2938 80.8074C76.3521 80.8932 76.4413 80.9798 76.5614 81.0671C76.6467 81.1291 76.7248 81.1811 76.7957 81.223C76.8721 81.2641 76.9375 81.2971 76.9917 81.3221L76.2659 82.3302C76.1215 82.2831 75.9733 82.2212 75.8214 82.1446C75.6694 82.0679 75.5113 81.9698 75.347 81.8504C75.0469 81.6321 74.8203 81.3925 74.6672 81.1314C74.5196 80.8695 74.4661 80.5844 74.5069 80.2759C74.5476 79.9675 74.699 79.6332 74.9609 79.273L78.586 74.2876ZM80.7635 83.4779C80.8347 83.38 80.8706 83.2709 80.8711 83.1505C80.8717 83.0302 80.8187 82.8806 80.7122 82.7017C80.611 82.5219 80.4374 82.299 80.1913 82.0331C79.9736 81.7879 79.7836 81.541 79.6213 81.2926C79.4645 81.0434 79.3487 80.7974 79.274 80.5547C79.2025 80.3143 79.1818 80.0771 79.2119 79.843C79.2444 79.6058 79.3398 79.3782 79.4984 79.1602C79.6546 78.9454 79.8474 78.7765 80.0769 78.6536C80.3095 78.5329 80.5655 78.4631 80.845 78.4442C81.1298 78.4243 81.4285 78.4652 81.741 78.5669C82.0589 78.6676 82.3774 78.8341 82.6965 79.0661C83.142 79.39 83.4726 79.7391 83.6883 80.1133C83.9072 80.4898 84.0111 80.8648 84.0003 81.2385C83.9948 81.6112 83.8773 81.9556 83.6475 82.2715L82.2827 81.2791C82.3792 81.1464 82.4369 81.0072 82.4559 80.8616C82.4803 80.7152 82.4558 80.5694 82.3826 80.4244C82.3148 80.2785 82.1893 80.1389 82.006 80.0057C81.8544 79.8954 81.7038 79.8269 81.5541 79.8002C81.4068 79.7704 81.271 79.7778 81.1466 79.8227C81.0277 79.8666 80.9304 79.9407 80.8545 80.045C80.7971 80.124 80.7612 80.2065 80.7469 80.2927C80.738 80.378 80.7531 80.4735 80.7921 80.5792C80.8312 80.6848 80.8947 80.8034 80.9826 80.935C81.0759 81.0656 81.2 81.2138 81.3548 81.3795C81.6693 81.7241 81.9271 82.0637 82.1281 82.3983C82.3315 82.7297 82.4427 83.0617 82.4616 83.3942C82.4829 83.7237 82.3718 84.0558 82.1283 84.3907C81.9629 84.6182 81.7607 84.7899 81.5218 84.906C81.2828 85.022 81.0169 85.0822 80.724 85.0865C80.4333 85.0877 80.1266 85.0313 79.8038 84.9173C79.4864 84.8024 79.1635 84.6255 78.8349 84.3866C78.3578 84.0397 78.0155 83.6604 77.8078 83.2485C77.6033 82.839 77.5111 82.4411 77.5312 82.0548C77.5567 81.6677 77.6705 81.3351 77.8727 81.0571L79.1664 81.9979C79.0372 82.1889 78.9755 82.3734 78.9812 82.5514C78.9901 82.7318 79.0457 82.8978 79.148 83.0494C79.2534 83.2034 79.3882 83.34 79.5525 83.4595C79.7294 83.5882 79.8936 83.6713 80.0449 83.7089C80.1986 83.7433 80.3353 83.7413 80.455 83.7028C80.5803 83.6635 80.6831 83.5885 80.7635 83.4779Z" fill="white"/>
<path d="M28.2653 149.574C28.4319 149.451 28.5565 149.311 28.639 149.153C28.7192 148.992 28.7526 148.826 28.7391 148.657C28.7264 148.482 28.6625 148.313 28.5474 148.15L29.8253 147.207C30.0864 147.568 30.2259 147.958 30.2437 148.377C30.2591 148.793 30.1672 149.198 29.968 149.592C29.7664 149.984 29.4692 150.324 29.0762 150.614C28.6801 150.906 28.2856 151.095 27.8928 151.181C27.503 151.265 27.1249 151.262 26.7584 151.173C26.3896 151.081 26.0417 150.916 25.7147 150.676C25.3853 150.434 25.0885 150.134 24.8242 149.775L24.7233 149.638C24.4566 149.277 24.2573 148.905 24.1251 148.521C23.9907 148.135 23.9352 147.754 23.9585 147.378C23.9795 146.998 24.0874 146.634 24.2824 146.287C24.4774 145.939 24.7713 145.62 25.1643 145.33C25.5824 145.022 26.0077 144.832 26.4403 144.761C26.8761 144.687 27.2937 144.733 27.6932 144.899C28.0935 145.06 28.4447 145.343 28.747 145.746L27.4692 146.688C27.3408 146.521 27.191 146.393 27.0198 146.306C26.8518 146.217 26.6732 146.178 26.484 146.192C26.2957 146.2 26.1088 146.272 25.9233 146.409C25.7252 146.555 25.5947 146.717 25.5315 146.894C25.4661 147.069 25.4521 147.254 25.4896 147.45C25.5248 147.642 25.5955 147.84 25.7017 148.043C25.8087 148.241 25.9352 148.439 26.0813 148.637L26.1822 148.773C26.3283 148.971 26.4811 149.152 26.6408 149.316C26.8004 149.48 26.967 149.607 27.1405 149.697C27.3171 149.786 27.4985 149.824 27.6845 149.813C27.8705 149.802 28.0641 149.722 28.2653 149.574ZM29.8463 146.042L29.7732 145.943C29.4973 145.568 29.2968 145.185 29.1718 144.792C29.0445 144.395 28.9972 144.005 29.03 143.622C29.0627 143.239 29.1809 142.873 29.3844 142.523C29.5857 142.171 29.8796 141.852 30.2663 141.567C30.6529 141.282 31.0459 141.094 31.445 141.003C31.8419 140.91 32.2283 140.904 32.6042 140.986C32.9833 141.065 33.3433 141.224 33.6844 141.463C34.0232 141.699 34.3305 142.003 34.6065 142.377L34.6795 142.476C34.9531 142.847 35.1536 143.231 35.2809 143.627C35.4059 144.021 35.4516 144.412 35.418 144.8C35.3853 145.184 35.2671 145.55 35.0636 145.899C34.86 146.248 34.5649 146.566 34.1782 146.851C33.7916 147.136 33.3998 147.325 33.003 147.419C32.6093 147.511 32.2229 147.516 31.8438 147.437C31.4656 147.352 31.1071 147.192 30.7683 146.956C30.4272 146.717 30.1199 146.413 29.8463 146.042ZM31.1312 144.941L31.2043 145.04C31.362 145.254 31.5281 145.439 31.7026 145.597C31.8771 145.755 32.0574 145.874 32.2435 145.955C32.4304 146.031 32.6204 146.058 32.8136 146.037C33.0067 146.016 33.2007 145.934 33.3956 145.79C33.5843 145.651 33.7172 145.492 33.7944 145.314C33.8716 145.135 33.9 144.947 33.8797 144.748C33.8571 144.547 33.7963 144.339 33.6972 144.126C33.6012 143.91 33.4744 143.695 33.3168 143.482L33.2437 143.383C33.0907 143.175 32.9265 142.995 32.7511 142.843C32.5766 142.685 32.3947 142.567 32.2055 142.488C32.0171 142.404 31.8252 142.371 31.6297 142.389C31.4342 142.407 31.2406 142.487 31.0489 142.628C30.8571 142.769 30.7238 142.931 30.6489 143.112C30.5772 143.291 30.5522 143.485 30.574 143.692C30.5966 143.894 30.6574 144.101 30.7565 144.314C30.8533 144.525 30.9782 144.733 31.1312 144.941ZM35.7313 139.312L38.7156 143.358L37.3528 144.363L33.5894 139.261L34.8673 138.319L35.7313 139.312ZM36.5131 140.767L36.1359 141.045C35.8738 140.69 35.6751 140.332 35.5397 139.971C35.4051 139.604 35.34 139.249 35.3443 138.906C35.3494 138.558 35.4309 138.231 35.5888 137.925C35.7467 137.619 35.9892 137.346 36.3161 137.105C36.5424 136.938 36.7754 136.819 37.015 136.749C37.2523 136.676 37.4919 136.662 37.7338 136.707C37.9764 136.746 38.2201 136.853 38.4648 137.027C38.7072 137.197 38.9455 137.442 39.1797 137.759L41.691 141.164L40.3329 142.165L37.933 138.912C37.7614 138.679 37.5978 138.523 37.4422 138.444C37.2866 138.364 37.132 138.342 36.9786 138.378C36.8284 138.411 36.6731 138.487 36.5127 138.605C36.3367 138.735 36.2093 138.885 36.1306 139.054C36.0551 139.222 36.0224 139.401 36.0326 139.593C36.0405 139.781 36.0866 139.975 36.1709 140.175C36.2553 140.375 36.3693 140.572 36.5131 140.767ZM39.435 138.372L38.9945 138.791C38.7487 138.458 38.5612 138.118 38.4319 137.772C38.3058 137.423 38.2445 137.08 38.2479 136.743C38.2546 136.403 38.3364 136.083 38.4935 135.782C38.6482 135.479 38.886 135.209 39.2066 134.972C39.4518 134.792 39.7017 134.663 39.9562 134.587C40.2084 134.508 40.462 134.493 40.7171 134.543C40.973 134.587 41.2291 134.704 41.4854 134.893C41.7449 135.081 42.0056 135.352 42.2676 135.707L44.6711 138.965L43.3083 139.97L40.9049 136.712C40.731 136.476 40.5674 136.32 40.4141 136.244C40.2616 136.163 40.1098 136.141 39.9587 136.18C39.8085 136.213 39.6547 136.287 39.4976 136.403C39.3341 136.524 39.2154 136.662 39.1415 136.819C39.0653 136.972 39.028 137.136 39.0298 137.309C39.0315 137.482 39.0676 137.66 39.138 137.841C39.2062 138.019 39.3051 138.196 39.435 138.372ZM44.0407 133.067L48.5275 139.15L47.1695 140.151L41.9592 133.088L43.2182 132.159L44.0407 133.067ZM48.3872 132.198L48.4602 132.297C48.7339 132.668 48.9437 133.044 49.0899 133.427C49.2392 133.807 49.3176 134.176 49.3249 134.535C49.3298 134.891 49.2569 135.226 49.1059 135.541C48.9558 135.851 48.7204 136.124 48.3997 136.361C48.0885 136.59 47.7718 136.727 47.4496 136.77C47.1273 136.814 46.8042 136.78 46.48 136.67C46.1567 136.554 45.8366 136.38 45.5197 136.148C45.2028 135.916 44.8917 135.645 44.5863 135.336L44.395 135.077C44.1717 134.669 43.9935 134.276 43.8606 133.899C43.7254 133.518 43.6513 133.157 43.6384 132.817C43.6263 132.472 43.687 132.153 43.8206 131.86C43.9573 131.565 44.1797 131.304 44.4878 131.077C44.8116 130.838 45.1413 130.689 45.4769 130.631C45.8157 130.571 46.153 130.594 46.4889 130.7C46.8279 130.804 47.157 130.984 47.4761 131.239C47.7983 131.492 48.102 131.811 48.3872 132.198ZM47.0975 133.302L47.0245 133.203C46.8645 132.986 46.6984 132.8 46.5261 132.646C46.3548 132.486 46.1788 132.366 45.9981 132.285C45.8207 132.203 45.6412 132.17 45.4598 132.187C45.2793 132.199 45.101 132.27 44.9249 132.4C44.7395 132.537 44.6027 132.684 44.5148 132.841C44.4299 132.996 44.3884 133.16 44.3901 133.333C44.3919 133.507 44.4303 133.687 44.5054 133.874C44.5804 134.062 44.6863 134.258 44.8229 134.463L45.3064 135.118C45.4937 135.339 45.6919 135.516 45.901 135.648C46.1078 135.777 46.3261 135.839 46.5558 135.835C46.7856 135.83 47.023 135.738 47.2682 135.557C47.4474 135.425 47.5693 135.274 47.6339 135.105C47.6962 134.933 47.7129 134.748 47.6841 134.551C47.6583 134.352 47.5927 134.148 47.4874 133.939C47.3851 133.728 47.2552 133.516 47.0975 133.302ZM47.2457 125.883L52.5881 133.125L51.2254 134.131L45.8829 126.888L47.2457 125.883ZM51.3805 126.138L55.1439 131.24L53.7811 132.245L50.0177 127.143L51.3805 126.138ZM48.952 125.876C48.8059 125.678 48.7545 125.464 48.7978 125.233C48.841 125.002 48.9789 124.801 49.2116 124.629C49.4411 124.46 49.6725 124.389 49.9059 124.416C50.1424 124.44 50.3337 124.551 50.4798 124.749C50.6259 124.947 50.6757 125.163 50.6293 125.396C50.5861 125.627 50.4497 125.827 50.2202 125.997C49.9876 126.168 49.7546 126.241 49.5212 126.214C49.2878 126.187 49.0981 126.074 48.952 125.876ZM58.1712 127.231L56.4947 124.958C56.3742 124.794 56.2442 124.674 56.105 124.597C55.9635 124.517 55.8117 124.486 55.6499 124.503C55.4912 124.519 55.3238 124.591 55.1477 124.721C54.9969 124.832 54.8861 124.955 54.8155 125.09C54.7426 125.221 54.7122 125.358 54.7243 125.499C54.7342 125.638 54.7866 125.771 54.8817 125.9L53.5237 126.902C53.3637 126.685 53.2621 126.442 53.2189 126.173C53.1758 125.904 53.1956 125.625 53.2783 125.335C53.3588 125.043 53.4997 124.757 53.7012 124.477C53.9058 124.195 54.1731 123.933 54.5032 123.689C54.8993 123.397 55.3001 123.203 55.7055 123.108C56.111 123.013 56.4991 123.032 56.8699 123.167C57.2439 123.299 57.577 123.563 57.8691 123.959L59.4795 126.142C59.6859 126.422 59.8725 126.638 60.0392 126.792C60.2036 126.943 60.3676 127.059 60.531 127.143L60.5901 127.223L59.2179 128.235C59.0499 128.146 58.8721 128.01 58.6844 127.828C58.4976 127.64 58.3266 127.441 58.1712 127.231ZM56.907 125.142L57.4833 125.903L56.7242 126.463C56.545 126.595 56.4044 126.731 56.3025 126.869C56.2007 127.007 56.1351 127.145 56.1059 127.283C56.0743 127.418 56.0741 127.55 56.1051 127.677C56.1392 127.802 56.1992 127.923 56.285 128.039C56.3708 128.156 56.4752 128.241 56.5982 128.296C56.7189 128.348 56.8493 128.364 56.9893 128.343C57.127 128.319 57.2634 128.257 57.3986 128.157C57.6029 128.007 57.7504 127.835 57.841 127.642C57.9316 127.449 57.9737 127.262 57.9673 127.083C57.9641 126.9 57.9246 126.755 57.8489 126.646L58.6316 126.957C58.6764 127.123 58.7058 127.307 58.7198 127.51C58.7369 127.711 58.7247 127.922 58.6831 128.142C58.6392 128.359 58.5535 128.575 58.426 128.79C58.2962 129.002 58.1039 129.202 57.8493 129.39C57.5255 129.629 57.1841 129.781 56.8249 129.847C56.4666 129.908 56.1258 129.88 55.8025 129.764C55.48 129.643 55.2098 129.434 54.9918 129.139C54.7947 128.872 54.67 128.597 54.6175 128.316C54.5651 128.034 54.5841 127.751 54.6747 127.465C54.7661 127.175 54.9329 126.884 55.175 126.594C55.4149 126.3 55.7297 126.01 56.1195 125.722L56.907 125.142ZM59.8039 121.607L62.7639 125.62L61.4059 126.621L57.6425 121.519L58.9156 120.58L59.8039 121.607ZM60.552 123.035L60.1842 123.307C59.9059 122.93 59.7042 122.554 59.5791 122.18C59.4516 121.804 59.397 121.443 59.4154 121.1C59.4314 120.753 59.5188 120.434 59.6773 120.142C59.8367 119.845 60.0673 119.585 60.3691 119.362C60.608 119.186 60.852 119.06 61.1011 118.983C61.3501 118.906 61.601 118.891 61.8538 118.937C62.1097 118.981 62.367 119.1 62.6256 119.292C62.8874 119.483 63.1504 119.757 63.4148 120.116L65.8147 123.369L64.4473 124.378L62.0438 121.12C61.8769 120.893 61.7156 120.74 61.56 120.661C61.4044 120.582 61.2467 120.562 61.087 120.602C60.9281 120.637 60.7607 120.719 60.5846 120.849C60.4023 120.983 60.2702 121.137 60.1884 121.309C60.1097 121.478 60.0738 121.66 60.0809 121.854C60.0888 122.042 60.1333 122.238 60.2145 122.44C60.2957 122.642 60.4082 122.841 60.552 123.035ZM65.5831 115.662L66.2927 116.624L63.322 118.815L62.6125 117.853L65.5831 115.662ZM62.4194 116.052L63.7774 115.05L67.3356 119.874C67.4446 120.021 67.5469 120.121 67.6426 120.172C67.7414 120.22 67.8417 120.231 67.9435 120.204C68.043 120.175 68.1524 120.116 68.2719 120.028C68.3567 119.965 68.4299 119.906 68.4913 119.851C68.5535 119.791 68.6047 119.739 68.6449 119.694L69.3869 120.691C69.2985 120.814 69.1947 120.937 69.0758 121.058C68.9569 121.18 68.8157 121.301 68.6522 121.422C68.3535 121.642 68.0567 121.786 67.7616 121.853C67.4674 121.915 67.1794 121.88 66.8976 121.748C66.6158 121.616 66.3428 121.371 66.0784 121.012L62.4194 116.052Z" fill="white"/>
<defs>
<filter id="filter0_f_1444_18" x="71.0588" y="90.1765" width="27.7354" height="24.0588" filterUnits="userSpaceOnUse" color-interpolation-filters="sRGB">
<feFlood flood-opacity="0" result="BackgroundImageFix"/>
<feBlend mode="normal" in="SourceGraphic" in2="BackgroundImageFix" result="shape"/>
<feGaussianBlur stdDeviation="0.5" result="effect1_foregroundBlur_1444_18"/>
</filter>
<linearGradient id="paint0_linear_1444_18" x1="-25" y1="185.294" x2="78.6765" y2="104.412" gradientUnits="userSpaceOnUse">
<stop stop-color="#113D48"/>
<stop offset="1" stop-color="#1CA8CB"/>
</linearGradient>
<linearGradient id="paint1_linear_1444_18" x1="-36.0294" y1="-30.8824" x2="77.9412" y2="74.2647" gradientUnits="userSpaceOnUse">
<stop stop-color="#113D48"/>
<stop offset="1" stop-color="#1CA8CB"/>
</linearGradient>
</defs>
</svg>
