<svg width="21" height="19" viewBox="0 0 21 19" fill="none" xmlns="http://www.w3.org/2000/svg">
<path d="M6.04688 6.96484H14.2031L11.3555 1.48047C11.1445 1.01172 11.2617 0.636719 11.707 0.355469C12.1758 0.144531 12.5508 0.261719 12.832 0.707031L16.1016 6.96484H19.125C19.4531 6.98828 19.7227 7.10547 19.9336 7.31641C20.1445 7.52734 20.25 7.78516 20.25 8.08984C20.25 8.41797 20.1445 8.6875 19.9336 8.89844C19.7227 9.10938 19.4531 9.21484 19.125 9.21484L17.2969 16.5625C17.1562 17.0547 16.8867 17.4531 16.4883 17.7578C16.0898 18.0859 15.6328 18.25 15.1172 18.25H5.09766C4.58203 18.25 4.125 18.0859 3.72656 17.7578C3.35156 17.4531 3.09375 17.0547 2.95312 16.5625L1.125 9.21484C0.796875 9.21484 0.527344 9.10938 0.316406 8.89844C0.105469 8.6875 0 8.41797 0 8.08984C0 7.78516 0.105469 7.52734 0.316406 7.31641C0.527344 7.10547 0.796875 6.98828 1.125 6.96484H4.14844L7.41797 0.707031C7.69922 0.261719 8.07422 0.144531 8.54297 0.355469C8.98828 0.636719 9.10547 1.01172 8.89453 1.48047L6.04688 6.96484ZM6.71484 10.9023C6.69141 10.5742 6.50391 10.3867 6.15234 10.3398C5.82422 10.3867 5.63672 10.5742 5.58984 10.9023V14.2773C5.63672 14.6289 5.82422 14.8164 6.15234 14.8398C6.50391 14.8164 6.69141 14.6289 6.71484 14.2773V10.9023ZM9.52734 10.9023V14.2773C9.57422 14.6289 9.76172 14.8164 10.0898 14.8398C10.4648 14.8164 10.6641 14.6289 10.6875 14.2773V10.9023C10.6641 10.5742 10.4648 10.3867 10.0898 10.3398C9.76172 10.3867 9.57422 10.5742 9.52734 10.9023ZM14.625 10.9023C14.6016 10.5742 14.4141 10.3867 14.0625 10.3398C13.7109 10.3867 13.5234 10.5742 13.5 10.9023V14.2773C13.5234 14.6289 13.7109 14.8164 14.0625 14.8398C14.4141 14.8164 14.6016 14.6289 14.625 14.2773V10.9023Z" fill="#79F4E4"/>
</svg>
