<svg width="23" height="14" viewBox="0 0 23 14" fill="none" xmlns="http://www.w3.org/2000/svg">
<path d="M8.40234 9.85156C8.49609 10.1797 8.39062 10.4258 8.08594 10.5898C7.75781 10.6836 7.51172 10.5781 7.34766 10.2734L7.03125 9.46484H4.21875L3.90234 10.2734C3.73828 10.5781 3.49219 10.6836 3.16406 10.5898C2.85938 10.4258 2.75391 10.1797 2.84766 9.85156L5.09766 4.22656C5.21484 3.99219 5.39062 3.875 5.625 3.875C5.85938 3.875 6.03516 3.99219 6.15234 4.22656L8.40234 9.85156ZM4.64062 8.375H6.60938L5.625 5.94922L4.64062 8.375ZM17.4375 5H19.6875C20.0391 5.02344 20.2266 5.21094 20.25 5.5625C20.2266 5.91406 20.0391 6.10156 19.6875 6.125H19.5117L19.3711 6.54688C19.0195 7.46094 18.5156 8.26953 17.8594 8.97266C17.8828 8.97266 17.9062 8.98438 17.9297 9.00781C18 9.07812 18.082 9.13672 18.1758 9.18359L18.8438 9.57031C19.125 9.78125 19.1953 10.0391 19.0547 10.3438C18.8438 10.625 18.5859 10.6953 18.2812 10.5547L17.6133 10.1328C17.3789 10.0156 17.1562 9.86328 16.9453 9.67578C16.6641 9.91016 16.3594 10.1094 16.0312 10.2734L15.4336 10.5547C15.1055 10.6953 14.8594 10.6133 14.6953 10.3086C14.5547 9.98047 14.6367 9.73438 14.9414 9.57031L15.5391 9.25391C15.7266 9.16016 15.9141 9.05469 16.1016 8.9375L15.3633 8.19922C15.1289 7.94141 15.1289 7.68359 15.3633 7.42578C15.6211 7.19141 15.8789 7.19141 16.1367 7.42578L16.9453 8.19922L16.9805 8.23438C17.5664 7.64844 18.0117 6.95703 18.3164 6.16016V6.08984H14.0625C13.7109 6.06641 13.5234 5.87891 13.5 5.52734C13.5234 5.19922 13.7109 5.01172 14.0625 4.96484H16.3125V4.40234C16.3359 4.07422 16.5234 3.88672 16.875 3.83984C17.2266 3.88672 17.4141 4.07422 17.4375 4.40234V5ZM22.5 11.75C22.4766 12.3828 22.2539 12.9102 21.832 13.332C21.4102 13.7539 20.8828 13.9766 20.25 14H2.25C1.61719 13.9766 1.08984 13.7539 0.667969 13.332C0.246094 12.9102 0.0234375 12.3828 0 11.75V2.75C0.0234375 2.11719 0.246094 1.58984 0.667969 1.16797C1.08984 0.746094 1.61719 0.523438 2.25 0.5H20.25C20.8828 0.523438 21.4102 0.746094 21.832 1.16797C22.2539 1.58984 22.4766 2.11719 22.5 2.75V11.75ZM10.6875 1.625H2.25C1.92188 1.625 1.65234 1.73047 1.44141 1.94141C1.23047 2.15234 1.125 2.42188 1.125 2.75V11.75C1.125 12.0781 1.23047 12.3477 1.44141 12.5586C1.65234 12.7695 1.92188 12.875 2.25 12.875H10.6875V1.625ZM11.8125 1.625V12.875H20.25C20.5781 12.875 20.8477 12.7695 21.0586 12.5586C21.2695 12.3477 21.375 12.0781 21.375 11.75V2.75C21.375 2.42188 21.2695 2.15234 21.0586 1.94141C20.8477 1.73047 20.5781 1.625 20.25 1.625H11.8125Z" fill="#79F4E4"/>
</svg>
