<svg width="21" height="19" viewBox="0 0 21 19" fill="none" xmlns="http://www.w3.org/2000/svg">
<path d="M6.04688 1.65625L9.42188 0.390625C9.89062 0.203125 10.3594 0.203125 10.8281 0.390625L14.2031 1.65625C15 2.00781 15.4219 2.62891 15.4688 3.51953V7.45703C15.5156 7.45703 15.5625 7.45703 15.6094 7.45703L18.9844 8.75781C19.7812 9.10938 20.2031 9.73047 20.25 10.6211V14.8047C20.2266 15.625 19.8398 16.2227 19.0898 16.5977L15.7148 18.0742C15.1758 18.3086 14.6484 18.3086 14.1328 18.0742L10.125 16.3516L6.15234 18.0742C5.61328 18.3086 5.08594 18.3086 4.57031 18.0742L1.16016 16.5977C0.410156 16.2227 0.0234375 15.625 0 14.8047V10.6211C0.046875 9.73047 0.46875 9.10938 1.26562 8.75781L4.64062 7.45703C4.6875 7.45703 4.73438 7.45703 4.78125 7.45703V3.51953C4.82812 2.62891 5.25 2.00781 6.04688 1.65625ZM10.2305 1.97266C10.1367 1.94922 10.0664 1.94922 10.0195 1.97266L7.27734 2.99219L10.0898 4.11719L12.9727 2.99219L10.2305 1.97266ZM13.7812 7.66797V4.50391L10.8984 5.62891V8.75781L13.7812 7.66797ZM5.44922 9.07422C5.35547 9.05078 5.28516 9.05078 5.23828 9.07422L2.49609 10.1289L5.34375 11.2188L8.19141 10.1289L5.44922 9.07422ZM6.11719 16.2461L9 14.9805V11.6055L6.11719 12.7305V16.2461ZM12.0586 10.1289L14.9062 11.2188L17.7539 10.1289L15.0117 9.07422C14.918 9.05078 14.8477 9.05078 14.8008 9.07422L12.0586 10.1289ZM18.5625 14.8047V11.6055L15.6797 12.7305V16.2461L18.3867 15.0508C18.5039 15.0039 18.5625 14.9219 18.5625 14.8047Z" fill="#79F4E4"/>
</svg>
