<svg width="21" height="19" viewBox="0 0 21 19" fill="none" xmlns="http://www.w3.org/2000/svg">
<path d="M0 2.5C0.0234375 1.86719 0.246094 1.33984 0.667969 0.917969C1.08984 0.496094 1.61719 0.273438 2.25 0.25H7.875V4.75C7.875 5.07812 7.98047 5.34766 8.19141 5.55859C8.40234 5.76953 8.67188 5.875 9 5.875H13.5V10.7969L10.1602 14.1016C9.87891 14.4062 9.69141 14.7578 9.59766 15.1562L9.03516 17.2656C8.96484 17.6172 8.98828 17.9453 9.10547 18.25H2.25C1.61719 18.2266 1.08984 18.0039 0.667969 17.582C0.246094 17.1602 0.0234375 16.6328 0 16V2.5ZM9 4.75V0.25L13.5 4.75H9ZM19.8281 9.03906C20.1094 9.32031 20.25 9.64844 20.25 10.0234C20.25 10.3984 20.1094 10.7383 19.8281 11.043L18.8086 12.0625L16.3125 9.56641L17.332 8.54688C17.6367 8.26562 17.9648 8.125 18.3164 8.125C18.6914 8.125 19.0312 8.26562 19.3359 8.54688L19.8281 9.03906ZM10.9688 14.875L15.5039 10.375L18 12.8711L13.4648 17.4062C13.3242 17.5469 13.1484 17.6406 12.9375 17.6875L10.8281 18.2148C10.6172 18.2617 10.4414 18.2148 10.3008 18.0742C10.1602 17.9336 10.1133 17.7461 10.1602 17.5117L10.6875 15.4375C10.7344 15.25 10.8281 15.0625 10.9688 14.875Z" fill="#79F4E4"/>
</svg>
