<svg width="23" height="19" viewBox="0 0 23 19" fill="none" xmlns="http://www.w3.org/2000/svg">
<path d="M3.9375 0.25H12.9375C13.4062 0.273438 13.8047 0.4375 14.1328 0.742188C14.4375 1.07031 14.6016 1.46875 14.625 1.9375V3.625H16.418C17.0039 3.625 17.5312 3.84766 18 4.29297L20.707 7C21.1523 7.44531 21.375 7.97266 21.375 8.58203V12.625C21.7031 12.625 21.9727 12.7305 22.1836 12.9414C22.3945 13.1523 22.5 13.4219 22.5 13.75C22.5 14.0781 22.3945 14.3477 22.1836 14.5586C21.9727 14.7695 21.7031 14.875 21.375 14.875H20.25C20.2266 15.8359 19.8984 16.6328 19.2656 17.2656C18.6328 17.8984 17.8359 18.2266 16.875 18.25C15.9141 18.2266 15.1172 17.8984 14.4844 17.2656C13.8516 16.6328 13.5234 15.8359 13.5 14.875H9C8.97656 15.8359 8.64844 16.6328 8.01562 17.2656C7.38281 17.8984 6.58594 18.2266 5.625 18.25C4.66406 18.2266 3.86719 17.8984 3.23438 17.2656C2.60156 16.6328 2.27344 15.8359 2.25 14.875V10.375H7.3125C7.66406 10.3516 7.85156 10.1641 7.875 9.8125C7.85156 9.46094 7.66406 9.27344 7.3125 9.25H0.5625C0.210938 9.22656 0.0234375 9.03906 0 8.6875C0.0234375 8.33594 0.210938 8.14844 0.5625 8.125H8.4375C8.78906 8.10156 8.97656 7.91406 9 7.5625C8.97656 7.21094 8.78906 7.02344 8.4375 7H1.6875C1.33594 6.97656 1.14844 6.78906 1.125 6.4375C1.14844 6.08594 1.33594 5.89844 1.6875 5.875H9.5625C9.91406 5.85156 10.1016 5.66406 10.125 5.3125C10.1016 4.96094 9.91406 4.77344 9.5625 4.75H0.5625C0.210938 4.72656 0.0234375 4.53906 0 4.1875C0.0234375 3.83594 0.210938 3.64844 0.5625 3.625H2.25V1.9375C2.27344 1.46875 2.4375 1.07031 2.74219 0.742188C3.07031 0.4375 3.46875 0.273438 3.9375 0.25ZM19.125 8.58203L16.418 5.875H14.625V9.25H19.125V8.58203ZM5.625 16.5625C6.09375 16.5391 6.49219 16.375 6.82031 16.0703C7.125 15.7422 7.28906 15.3438 7.3125 14.875C7.28906 14.4062 7.125 14.0078 6.82031 13.6797C6.49219 13.375 6.09375 13.2109 5.625 13.1875C5.15625 13.2109 4.75781 13.375 4.42969 13.6797C4.125 14.0078 3.96094 14.4062 3.9375 14.875C3.96094 15.3438 4.125 15.7422 4.42969 16.0703C4.75781 16.375 5.15625 16.5391 5.625 16.5625ZM18.5625 14.875C18.5391 14.4062 18.375 14.0078 18.0703 13.6797C17.7422 13.375 17.3438 13.2109 16.875 13.1875C16.4062 13.2109 16.0078 13.375 15.6797 13.6797C15.375 14.0078 15.2109 14.4062 15.1875 14.875C15.2109 15.3438 15.375 15.7422 15.6797 16.0703C16.0078 16.375 16.4062 16.5391 16.875 16.5625C17.3438 16.5391 17.7422 16.375 18.0703 16.0703C18.375 15.7422 18.5391 15.3438 18.5625 14.875Z" fill="#79F4E4"/>
</svg>
