<svg width="18" height="17" viewBox="0 0 18 17" fill="none" xmlns="http://www.w3.org/2000/svg">
<path d="M18 9.375V13.3125C17.9766 14.1094 17.6953 14.7773 17.1562 15.3164C16.6406 15.832 15.9844 16.1016 15.1875 16.125C14.7188 16.1016 14.3203 15.9375 13.9922 15.6328C13.6875 15.3047 13.5234 14.9062 13.5 14.4375V9.9375C13.5234 9.46875 13.6875 9.07031 13.9922 8.74219C14.3203 8.4375 14.7188 8.27344 15.1875 8.25C15.5625 8.25 15.9141 8.33203 16.2422 8.49609C15.9844 6.62109 15.1875 5.09766 13.8516 3.92578C12.5156 2.73047 10.8984 2.10937 9 2.0625C7.10156 2.10937 5.48438 2.73047 4.14844 3.92578C2.8125 5.09766 2.01562 6.62109 1.75781 8.49609C2.08594 8.33203 2.4375 8.25 2.8125 8.25C3.28125 8.27344 3.67969 8.4375 4.00781 8.74219C4.3125 9.07031 4.47656 9.46875 4.5 9.9375V14.4375C4.47656 14.9062 4.3125 15.3047 4.00781 15.6328C3.67969 15.9375 3.28125 16.1016 2.8125 16.125C2.01562 16.1016 1.35938 15.832 0.84375 15.3164C0.328125 14.7773 0.0585938 14.1094 0.0351562 13.3125L0 9.375C0.0234375 7.71094 0.433594 6.19922 1.23047 4.83984C2.02734 3.48047 3.10547 2.40234 4.46484 1.60547C5.82422 0.808594 7.33594 0.398438 9 0.375C10.6641 0.398438 12.1758 0.808594 13.5352 1.60547C14.8711 2.40234 15.9375 3.48047 16.7344 4.83984C17.5547 6.17578 17.9648 7.67578 17.9648 9.33984C17.9648 9.36328 17.9766 9.375 18 9.375Z" fill="#79F4E4"/>
</svg>
