<svg width="18" height="19" viewBox="0 0 18 19" fill="none" xmlns="http://www.w3.org/2000/svg">
<path d="M13.5 0.25L18 4.75H13.5V0.25ZM12.375 4.75C12.375 5.07812 12.4805 5.34766 12.6914 5.55859C12.9258 5.76953 13.207 5.875 13.5352 5.875H18V16.5625C17.9766 17.0312 17.8125 17.4297 17.5078 17.7578C17.1797 18.0625 16.7812 18.2266 16.3125 18.25H6.1875C5.71875 18.2266 5.32031 18.0625 4.99219 17.7578C4.6875 17.4297 4.52344 17.0312 4.5 16.5625V12.0625H10.6172L9.24609 13.4336C9.08203 13.5977 9 13.7969 9 14.0312C9 14.2656 9.08203 14.4648 9.24609 14.6289C9.64453 14.957 10.043 14.957 10.4414 14.6289L13.2539 11.8164C13.582 11.418 13.582 11.0195 13.2539 10.6211L10.4414 7.80859C10.043 7.48047 9.64453 7.48047 9.24609 7.80859C8.91797 8.20703 8.91797 8.60547 9.24609 9.00391L10.6172 10.375H4.5V1.9375C4.52344 1.46875 4.6875 1.07031 4.99219 0.742188C5.32031 0.4375 5.71875 0.273438 6.1875 0.25H12.375V4.75ZM0.84375 10.375H4.5V12.0625H0.84375C0.328125 12.0156 0.046875 11.7344 0 11.2188C0.046875 10.7031 0.328125 10.4219 0.84375 10.375Z" fill="#79F4E4"/>
</svg>
